# xmcd CD database file
#
# Track frame offsets:
#	150
#	26937
#	51771
#	82813
#	102357
#	132542
#	157340
#	186075
#	260559
#	285589
#
# Disc length: 4020 seconds
#
# Revision: 0
# Processed by: cddbd v1.5.1PL0 Copyright (c) Steve Scherf et al.
# Submitted via: CDex 1.51
#
DISCID=900fb20a
DTITLE=Jon Mark - A Sunday In Autumn
DYEAR=1900
DGENRE=New Age
TTITLE0=Autumn
TTITLE1=Sunday Morning
TTITLE2=First Snowfall
TTITLE3=Afternoon, The Old Walking Track
TTITLE4=Evening, Pine Logs On An Open Fire
TTITLE5=Supper And Wine For One
TTITLE6=Thinking Of You
TTITLE7=The City, The Bag Lady, And The Snow
TTITLE8=2AM Street Night Sounds
TTITLE9=Autumn's End
EXTD=
EXTT0=
EXTT1=
EXTT2=
EXTT3=
EXTT4=
EXTT5=
EXTT6=
EXTT7=
EXTT8=
EXTT9=
PLAYORDER=
